<?xml version="1.0" encoding="iso-8859-1"?>
<!-- Generator: Adobe Illustrator 19.0.0, SVG Export Plug-In . SVG Version: 6.00 Build 0)  -->
<svg fill="#8594b0" version="1.1" id="Layer_1" xmlns="http://www.w3.org/2000/svg" xmlns:xlink="http://www.w3.org/1999/xlink" x="0px" y="0px"
	 viewBox="0 0 512 512" style="enable-background:new 0 0 512 512;" xml:space="preserve">
<g>
	<g>
		<path d="M422.957,33.391h-53.163C362.879,14,344.519,0,322.783,0H189.217c-21.737,0-40.096,14-47.01,33.391H89.044
			c-27.619,0-50.087,22.468-50.087,50.087v378.435c0,27.619,22.468,50.087,50.087,50.087h333.913
			c27.619,0,50.087-22.468,50.087-50.087V83.478C473.043,55.859,450.576,33.391,422.957,33.391z M122.435,400.696
			c-9.22,0-16.696-7.475-16.696-16.696s7.475-16.696,16.696-16.696c9.22,0,16.696,7.475,16.696,16.696
			S131.655,400.696,122.435,400.696z M122.435,300.522c-9.22,0-16.696-7.475-16.696-16.696c0-9.22,7.475-16.696,16.696-16.696
			c9.22,0,16.696,7.475,16.696,16.696C139.13,293.047,131.655,300.522,122.435,300.522z M122.435,200.348
			c-9.22,0-16.696-7.475-16.696-16.696c0-9.22,7.475-16.696,16.696-16.696c9.22,0,16.696,7.475,16.696,16.696
			C139.13,192.873,131.655,200.348,122.435,200.348z M172.522,50.087c0-9.206,7.49-16.696,16.696-16.696h133.565
			c9.206,0,16.696,7.49,16.696,16.696v16.696H172.522V50.087z M389.565,400.696H189.217c-9.223,0-16.696-7.473-16.696-16.696
			s7.473-16.696,16.696-16.696h200.348c9.223,0,16.696,7.473,16.696,16.696S398.788,400.696,389.565,400.696z M389.565,300.522
			H189.217c-9.223,0-16.696-7.473-16.696-16.696c0-9.223,7.473-16.696,16.696-16.696h200.348c9.223,0,16.696,7.473,16.696,16.696
			C406.261,293.049,398.788,300.522,389.565,300.522z M389.565,200.348H189.217c-9.223,0-16.696-7.473-16.696-16.696
			c0-9.223,7.473-16.696,16.696-16.696h200.348c9.223,0,16.696,7.473,16.696,16.696
			C406.261,192.875,398.788,200.348,389.565,200.348z"/>
	</g>
</g>
<g>
</g>
<g>
</g>
<g>
</g>
<g>
</g>
<g>
</g>
<g>
</g>
<g>
</g>
<g>
</g>
<g>
</g>
<g>
</g>
<g>
</g>
<g>
</g>
<g>
</g>
<g>
</g>
<g>
</g>
</svg>
